<?xml version="1.0" encoding="utf-8"?>
<!-- Generator: Adobe Illustrator 26.0.1, SVG Export Plug-In . SVG Version: 6.00 Build 0)  -->
<svg version="1.1" id="Calque_1" xmlns="http://www.w3.org/2000/svg" xmlns:xlink="http://www.w3.org/1999/xlink" x="0px" y="0px"
	 viewBox="0 0 464.4 151.3" style="enable-background:new 0 0 464.4 151.3;" xml:space="preserve">
<style type="text/css">
	.st0{fill:#FFFFFF;}
</style>
<g>
	<path class="st0" d="M41,51.5H17.5L14.7,58c-0.9,2.2-1.4,3.9-1.4,5.3c0,1.9,0.8,3.2,2.3,4.1c0.9,0.5,3.1,0.9,6.5,1.2v1.8H0v-1.8
		c2.4-0.4,4.4-1.3,5.9-3c1.5-1.6,3.4-5,5.7-10L35.4,2.5h0.9l24,54.6c2.3,5.2,4.2,8.4,5.6,9.8c1.1,1,2.7,1.6,4.7,1.8v1.8H38.5v-1.8
		h1.3c2.6,0,4.4-0.4,5.4-1.1c0.7-0.5,1.1-1.3,1.1-2.3c0-0.6-0.1-1.2-0.3-1.8c-0.1-0.3-0.6-1.5-1.5-3.7L41,51.5z M39.4,47.9L29.5,25
		L19.3,47.9H39.4z"/>
	<path class="st0" d="M119,2.4l0.5,22.2h-2c-0.9-5.6-3.3-10-7-13.4s-7.7-5.1-12-5.1c-3.3,0-6,0.9-7.9,2.7s-2.9,3.8-2.9,6.2
		c0,1.5,0.3,2.8,1,3.9c0.9,1.5,2.5,3.1,4.6,4.6c1.5,1.1,5.1,3,10.7,5.7c7.8,3.8,13,7.4,15.8,10.8c2.7,3.4,4,7.3,4,11.7
		c0,5.6-2.2,10.3-6.5,14.4c-4.3,4-9.8,6-16.5,6c-2.1,0-4.1-0.2-5.9-0.6c-1.9-0.4-4.2-1.2-7-2.4c-1.6-0.7-2.9-1-3.9-1
		c-0.9,0-1.8,0.3-2.7,1c-0.9,0.7-1.7,1.7-2.3,3h-2V46.8h1.8c1.4,7.1,4.2,12.5,8.3,16.2c4.1,3.7,8.5,5.6,13.3,5.6c3.7,0,6.6-1,8.8-3
		c2.2-2,3.3-4.3,3.3-7c0-1.6-0.4-3.1-1.3-4.6s-2.1-2.9-3.8-4.2c-1.7-1.3-4.7-3.1-9-5.2c-6.1-3-10.4-5.5-13.1-7.6s-4.7-4.4-6.1-7
		s-2.1-5.4-2.1-8.5c0-5.3,1.9-9.8,5.8-13.5s8.8-5.6,14.7-5.6c2.2,0,4.3,0.3,6.3,0.8c1.5,0.4,3.4,1.1,5.6,2.2s3.8,1.6,4.6,1.6
		c0.9,0,1.5-0.3,2-0.8s0.9-1.8,1.4-3.8C117.5,2.4,119,2.4,119,2.4z"/>
	<path class="st0" d="M174.9,2.4l0.5,22.2h-2c-0.9-5.6-3.3-10-7-13.4s-7.7-5.1-12-5.1c-3.3,0-6,0.9-7.9,2.7s-2.9,3.8-2.9,6.2
		c0,1.5,0.3,2.8,1,3.9c0.9,1.5,2.5,3.1,4.6,4.6c1.5,1.1,5.1,3,10.7,5.7c7.8,3.8,13,7.4,15.8,10.8c2.7,3.4,4,7.3,4,11.7
		c0,5.6-2.2,10.3-6.5,14.4c-4.3,4-9.8,6-16.5,6c-2.1,0-4.1-0.2-5.9-0.6c-1.9-0.4-4.2-1.2-7-2.4c-1.6-0.7-2.9-1-3.9-1
		c-0.9,0-1.8,0.3-2.7,1s-1.7,1.7-2.3,3h-1.8V46.8h1.8c1.4,7.1,4.2,12.5,8.3,16.2c4.1,3.7,8.5,5.6,13.3,5.6c3.7,0,6.6-1,8.8-3
		s3.3-4.3,3.3-7c0-1.6-0.4-3.1-1.3-4.6c-0.8-1.5-2.1-2.9-3.8-4.2s-4.7-3.1-9-5.2c-6.1-3-10.4-5.5-13.1-7.6c-2.7-2.1-4.7-4.4-6.1-7
		c-1.4-2.6-2.1-5.4-2.1-8.5c0-5.3,1.9-9.8,5.8-13.5c3.9-3.7,8.8-5.6,14.7-5.6c2.2,0,4.3,0.3,6.3,0.8c1.5,0.4,3.4,1.1,5.6,2.2
		c2.2,1.1,3.8,1.6,4.6,1.6c0.9,0,1.5-0.3,2-0.8s0.9-1.8,1.4-3.8C173.6,2.4,174.9,2.4,174.9,2.4z"/>
	<path class="st0" d="M221.8,51.5h-23.5l-2.8,6.5c-0.9,2.2-1.4,3.9-1.4,5.3c0,1.9,0.8,3.2,2.3,4.1c0.9,0.5,3.1,0.9,6.5,1.2v1.8
		h-22.1v-1.8c2.4-0.4,4.4-1.3,5.9-3c1.5-1.6,3.4-5,5.7-10l23.8-53.1h0.9l24,54.6c2.3,5.2,4.2,8.4,5.6,9.8c1.1,1,2.7,1.6,4.7,1.8v1.8
		h-32.2v-1.8h1.3c2.6,0,4.4-0.4,5.4-1.1c0.7-0.5,1.1-1.3,1.1-2.3c0-0.6-0.1-1.2-0.3-1.8c-0.1-0.3-0.6-1.5-1.5-3.7L221.8,51.5z
		 M220.2,47.9L210.3,25L200,47.9H220.2z"/>
	<path class="st0" d="M277.6,3.9l32.8,41.3V16.5c0-4-0.6-6.7-1.7-8.1c-1.6-1.9-4.2-2.8-7.9-2.7V3.9h22v1.8c-2.8,0.4-4.7,0.8-5.7,1.4
		s-1.7,1.5-2.3,2.8c-0.5,1.3-0.8,3.5-0.8,6.7V72h-1.7l-45-55.4v42.3c0,3.8,0.9,6.4,2.6,7.8c1.8,1.3,3.8,2,6,2h1.6v1.8H254v-1.8
		c3.7,0,6.2-0.8,7.7-2.3c1.4-1.5,2.2-4,2.2-7.5v-47l-1.4-1.8c-1.4-1.8-2.7-2.9-3.7-3.5S256,5.8,254,5.7V3.9H277.6z"/>
	<path class="st0" d="M393,2.4v23.4h-1.8c-2.2-6.4-5.5-11.3-9.9-14.6s-9.2-5-14.4-5c-5,0-9.1,1.4-12.4,4.2s-5.6,6.7-7,11.7
		s-2.1,10.1-2.1,15.4c0,6.4,0.8,12,2.3,16.8s3.9,8.3,7.3,10.6s7.3,3.4,12,3.4c1.6,0,3.2-0.2,4.9-0.5c1.7-0.3,3.4-0.8,5.2-1.5V52.5
		c0-2.6-0.2-4.3-0.5-5.1c-0.4-0.8-1.1-1.5-2.2-2.1s-2.5-0.9-4.1-0.9h-1.7v-1.8h32.3v1.8c-2.5,0.2-4.2,0.5-5.1,1
		c-1,0.5-1.7,1.4-2.2,2.5c-0.3,0.6-0.4,2.1-0.4,4.6v13.8c-4.3,1.9-8.7,3.3-13.3,4.3c-4.6,1-9.4,1.4-14.3,1.4
		c-6.3,0-11.6-0.9-15.7-2.6c-4.2-1.7-7.9-4-11-6.8s-5.7-5.9-7.5-9.4c-2.3-4.5-3.4-9.6-3.4-15.2c0-10,3.5-18.5,10.6-25.4
		c7-6.9,15.9-10.4,26.6-10.4c3.3,0,6.3,0.3,8.9,0.8c1.4,0.3,3.8,1,7,2.2s5.1,1.8,5.7,1.8c0.9,0,1.8-0.3,2.6-1
		c0.8-0.7,1.5-1.9,2.2-3.8h1.4V2.4z"/>
	<path class="st0" d="M429.3,7.7v27.1h1.3c4.2,0,7.3-1.3,9.2-4c1.9-2.7,3.1-6.6,3.6-11.7h1.9v34.8h-1.9c-0.4-3.8-1.2-6.9-2.5-9.3
		s-2.7-4-4.4-4.9c-1.7-0.8-4.1-1.3-7.3-1.3v18.8c0,3.7,0.2,5.9,0.5,6.7s0.9,1.5,1.7,2c0.9,0.5,2.2,0.8,4.1,0.8h4
		c6.2,0,11.2-1.4,14.9-4.3c3.7-2.9,6.4-7.3,8.1-13.2h1.8l-3,21.2h-57.5v-1.8h2.2c1.9,0,3.5-0.3,4.7-1c0.9-0.5,1.5-1.2,2-2.4
		c0.4-0.8,0.5-2.8,0.5-6.2V15.3c0-3-0.1-4.9-0.2-5.5c-0.3-1.1-0.9-2-1.8-2.7c-1.2-0.9-2.9-1.4-5.1-1.4h-2.2V3.9h55.7v19.7h-1.9
		c-0.9-4.8-2.3-8.3-4-10.4s-4.1-3.6-7.3-4.6c-1.8-0.6-5.3-0.9-10.3-0.9C436.1,7.7,429.3,7.7,429.3,7.7z"/>
</g>
<g>
	<path class="st0" d="M120.1,79.2H153c25.2,0,37.3,15.2,37.3,34.2c0,19.7-11.9,35.2-36.9,35.2h-33.3L120.1,79.2L120.1,79.2z
		 M147.9,131.8h2.8c8.1,0,11-5.5,11-18.5c0-12.8-2.5-17.5-10.5-17.5h-3.3V131.8z"/>
	<path class="st0" d="M220.6,137.7l-2.3,10.9h-26.7L211,79.2h36.9l20,69.4h-28.8l-2.3-10.9H220.6z M233.9,120.4
		c-0.9-5.5-3.9-17-5.2-24.3h-0.6c-1.4,8.2-3.8,17.7-5.1,24.3C223,120.4,233.9,120.4,233.9,120.4z"/>
	<path class="st0" d="M345.6,114c0,20.1-12.9,37.3-38.6,37.3c-25.6,0-37.7-18.2-37.7-37.4c0-19.4,12.6-37.6,38.8-37.6
		C332.5,76.4,345.6,94.4,345.6,114z M298.9,113.6c0,11.9,1.8,20.4,8.8,20.4c6.6,0,8.5-8,8.5-19.9c0-12.6-1.4-20.5-8.7-20.5
		C301.2,93.6,298.9,101.3,298.9,113.6z"/>
</g>
</svg>
