<?xml version="1.0" encoding="utf-8"?>
<!-- Generator: Adobe Illustrator 26.0.2, SVG Export Plug-In . SVG Version: 6.00 Build 0)  -->
<svg version="1.1" id="Calque_1" xmlns="http://www.w3.org/2000/svg" xmlns:xlink="http://www.w3.org/1999/xlink" x="0px" y="0px"
	 viewBox="0 0 464.4 222.5" style="enable-background:new 0 0 464.4 222.5;" xml:space="preserve">
<style type="text/css">
	.st0{fill:#FFFFFF;}
</style>
<path class="st0" d="M127.7,3.8v27.3h1.9c2.9,0,5.4-0.4,7.2-1.3c1.9-0.9,3.4-2.4,4.7-4.5c1.3-2.1,2.1-4.9,2.5-8.5h1.7v33.4H144
	c-0.6-6.3-2.3-10.5-5.1-12.5s-5.9-3-9.4-3h-1.9v20.4c0,3.4,0.2,5.5,0.6,6.4c0.4,0.9,1.1,1.6,2.2,2.2c1.1,0.6,2.6,1,4.4,1h2.2v1.8
	h-34.8v-1.8h2.2c1.9,0,3.5-0.3,4.7-1c0.9-0.5,1.5-1.2,2-2.4c0.4-0.8,0.5-2.8,0.5-6.2V11.4c0-3.4-0.2-5.5-0.5-6.4
	c-0.4-0.9-1.1-1.6-2.2-2.2c-1.1-0.6-2.6-1-4.4-1h-2.2V0h56.2v19.1h-2c-0.5-4.5-1.6-7.8-3.5-10c-1.9-2.2-4.6-3.7-8.2-4.6
	c-2-0.5-5.6-0.7-10.9-0.7H127.7z"/>
<path class="st0" d="M188.1,36.2v18.7c0,3.6,0.2,5.9,0.7,6.8c0.4,0.9,1.2,1.7,2.3,2.2c1.1,0.6,3.2,0.8,6.2,0.8v1.8h-34.1v-1.8
	c3.1,0,5.2-0.3,6.3-0.9c1.1-0.6,1.9-1.3,2.3-2.2c0.4-0.9,0.7-3.2,0.7-6.8V11.7c0-3.6-0.2-5.9-0.7-6.8c-0.4-0.9-1.2-1.7-2.3-2.2
	c-1.1-0.6-3.2-0.8-6.2-0.8V0h30.9c8,0,13.9,0.6,17.7,1.7s6.8,3.2,9.1,6.2c2.4,3,3.5,6.5,3.5,10.5c0,4.9-1.8,9-5.3,12.2
	c-2.3,2-5.4,3.6-9.5,4.6l16,22.5c2.1,2.9,3.6,4.7,4.5,5.4c1.3,1,2.9,1.6,4.7,1.7v1.8h-21l-21.4-30.3H188.1z M188.1,3.6v29.2h2.8
	c4.5,0,8-0.4,10.2-1.3c2.3-0.8,4-2.3,5.3-4.5c1.3-2.2,1.9-5,1.9-8.5c0-5.1-1.2-8.8-3.6-11.2c-2.4-2.4-6.2-3.6-11.5-3.6H188.1z"/>
<path class="st0" d="M261.4,3.8v27.1h1.3c4.2,0,7.3-1.3,9.2-4c1.9-2.7,3.1-6.6,3.6-11.7h1.9v34.8h-1.9c-0.4-3.8-1.2-6.9-2.5-9.3
	c-1.3-2.4-2.7-4-4.4-4.9c-1.7-0.8-4.1-1.3-7.3-1.3v18.8c0,3.7,0.2,5.9,0.5,6.7c0.3,0.8,0.9,1.5,1.7,2c0.9,0.5,2.2,0.8,4.1,0.8h4
	c6.2,0,11.2-1.4,14.9-4.3c3.7-2.9,6.4-7.3,8.1-13.2h1.8l-3,21.2H236v-1.8h2.2c1.9,0,3.5-0.3,4.7-1c0.9-0.5,1.5-1.2,2-2.4
	c0.4-0.8,0.5-2.8,0.5-6.2V11.4c0-3-0.1-4.9-0.2-5.5c-0.3-1.1-0.9-2-1.8-2.7c-1.2-0.9-2.9-1.4-5.1-1.4H236V0h55.7v19.7h-1.9
	c-0.9-4.8-2.3-8.3-4-10.4c-1.7-2.1-4.1-3.6-7.3-4.6c-1.8-0.6-5.3-0.9-10.3-0.9H261.4z"/>
<path class="st0" d="M328.5,3.8v27.1h1.3c4.2,0,7.3-1.3,9.2-4c1.9-2.7,3.1-6.6,3.6-11.7h1.9v34.8h-1.9c-0.4-3.8-1.2-6.9-2.5-9.3
	c-1.3-2.4-2.7-4-4.4-4.9c-1.7-0.8-4.1-1.3-7.3-1.3v18.8c0,3.7,0.2,5.9,0.5,6.7c0.3,0.8,0.9,1.5,1.7,2c0.9,0.5,2.2,0.8,4.1,0.8h4
	c6.2,0,11.2-1.4,14.9-4.3c3.7-2.9,6.4-7.3,8.1-13.2h1.8l-3,21.2h-57.5v-1.8h2.2c1.9,0,3.5-0.3,4.7-1c0.9-0.5,1.5-1.2,2-2.4
	c0.4-0.8,0.5-2.8,0.5-6.2V11.4c0-3-0.1-4.9-0.2-5.5c-0.3-1.1-0.9-2-1.8-2.7c-1.2-0.9-2.9-1.4-5.1-1.4h-2.2V0h55.7v19.7h-1.9
	c-0.9-4.8-2.3-8.3-4-10.4s-4.1-3.6-7.3-4.6c-1.8-0.6-5.3-0.9-10.3-0.9H328.5z"/>
<path class="st0" d="M41,122.7H17.5l-2.8,6.5c-0.9,2.2-1.4,3.9-1.4,5.3c0,1.9,0.8,3.2,2.3,4.1c0.9,0.5,3.1,0.9,6.5,1.2v1.8H0v-1.8
	c2.4-0.4,4.4-1.3,5.9-3c1.5-1.6,3.4-5,5.7-10l23.8-53.1h0.9l24,54.6c2.3,5.2,4.2,8.4,5.6,9.8c1.1,1,2.7,1.6,4.7,1.8v1.8H38.5v-1.8
	h1.3c2.6,0,4.4-0.4,5.4-1.1c0.7-0.5,1.1-1.3,1.1-2.3c0-0.6-0.1-1.2-0.3-1.8c-0.1-0.3-0.6-1.5-1.5-3.7L41,122.7z M39.4,119.1
	l-9.9-22.9l-10.2,22.9H39.4z"/>
<path class="st0" d="M119,73.6l0.5,22.2h-2c-0.9-5.6-3.3-10-7-13.4c-3.7-3.4-7.7-5.1-12-5.1c-3.3,0-6,0.9-7.9,2.7s-2.9,3.8-2.9,6.2
	c0,1.5,0.3,2.8,1,3.9c0.9,1.5,2.5,3.1,4.6,4.6c1.5,1.1,5.1,3,10.7,5.7c7.8,3.8,13,7.4,15.8,10.8c2.7,3.4,4,7.3,4,11.7
	c0,5.6-2.2,10.3-6.5,14.4c-4.3,4-9.8,6-16.5,6c-2.1,0-4.1-0.2-5.9-0.6c-1.9-0.4-4.2-1.2-7-2.4c-1.6-0.7-2.9-1-3.9-1
	c-0.9,0-1.8,0.3-2.7,1c-0.9,0.7-1.7,1.7-2.3,3H77V118h1.8c1.4,7.1,4.2,12.5,8.3,16.2c4.1,3.7,8.5,5.6,13.3,5.6c3.7,0,6.6-1,8.8-3
	c2.2-2,3.3-4.3,3.3-7c0-1.6-0.4-3.1-1.3-4.6s-2.1-2.9-3.8-4.2c-1.7-1.3-4.7-3.1-9-5.2c-6.1-3-10.4-5.5-13.1-7.6
	c-2.7-2.1-4.7-4.4-6.1-7c-1.4-2.6-2.1-5.4-2.1-8.5c0-5.3,1.9-9.8,5.8-13.5c3.9-3.7,8.8-5.6,14.7-5.6c2.2,0,4.3,0.3,6.3,0.8
	c1.5,0.4,3.4,1.1,5.6,2.2s3.8,1.6,4.6,1.6c0.9,0,1.5-0.3,2-0.8s0.9-1.8,1.4-3.8H119z"/>
<path class="st0" d="M174.9,73.6l0.5,22.2h-2c-0.9-5.6-3.3-10-7-13.4c-3.7-3.4-7.7-5.1-12-5.1c-3.3,0-6,0.9-7.9,2.7
	s-2.9,3.8-2.9,6.2c0,1.5,0.3,2.8,1,3.9c0.9,1.5,2.5,3.1,4.6,4.6c1.5,1.1,5.1,3,10.7,5.7c7.8,3.8,13,7.4,15.8,10.8
	c2.7,3.4,4,7.3,4,11.7c0,5.6-2.2,10.3-6.5,14.4c-4.3,4-9.8,6-16.5,6c-2.1,0-4.1-0.2-5.9-0.6c-1.9-0.4-4.2-1.2-7-2.4
	c-1.6-0.7-2.9-1-3.9-1c-0.9,0-1.8,0.3-2.7,1c-0.9,0.7-1.7,1.7-2.3,3h-1.8V118h1.8c1.4,7.1,4.2,12.5,8.3,16.2
	c4.1,3.7,8.5,5.6,13.3,5.6c3.7,0,6.6-1,8.8-3c2.2-2,3.3-4.3,3.3-7c0-1.6-0.4-3.1-1.3-4.6c-0.8-1.5-2.1-2.9-3.8-4.2
	c-1.7-1.3-4.7-3.1-9-5.2c-6.1-3-10.4-5.5-13.1-7.6c-2.7-2.1-4.7-4.4-6.1-7c-1.4-2.6-2.1-5.4-2.1-8.5c0-5.3,1.9-9.8,5.8-13.5
	c3.9-3.7,8.8-5.6,14.7-5.6c2.2,0,4.3,0.3,6.3,0.8c1.5,0.4,3.4,1.1,5.6,2.2c2.2,1.1,3.8,1.6,4.6,1.6c0.9,0,1.5-0.3,2-0.8
	c0.5-0.5,0.9-1.8,1.4-3.8H174.9z"/>
<path class="st0" d="M221.8,122.7h-23.5l-2.8,6.5c-0.9,2.2-1.4,3.9-1.4,5.3c0,1.9,0.8,3.2,2.3,4.1c0.9,0.5,3.1,0.9,6.5,1.2v1.8
	h-22.1v-1.8c2.4-0.4,4.4-1.3,5.9-3c1.5-1.6,3.4-5,5.7-10l23.8-53.1h0.9l24,54.6c2.3,5.2,4.2,8.4,5.6,9.8c1.1,1,2.7,1.6,4.7,1.8v1.8
	h-32.2v-1.8h1.3c2.6,0,4.4-0.4,5.4-1.1c0.7-0.5,1.1-1.3,1.1-2.3c0-0.6-0.1-1.2-0.3-1.8c-0.1-0.3-0.6-1.5-1.5-3.7L221.8,122.7z
	 M220.2,119.1l-9.9-22.9L200,119.1H220.2z"/>
<path class="st0" d="M277.6,75.1l32.8,41.3V87.7c0-4-0.6-6.7-1.7-8.1c-1.6-1.9-4.2-2.8-7.9-2.7v-1.8h22v1.8
	c-2.8,0.4-4.7,0.8-5.7,1.4c-1,0.6-1.7,1.5-2.3,2.8c-0.5,1.3-0.8,3.5-0.8,6.7v55.4h-1.7l-45-55.4v42.3c0,3.8,0.9,6.4,2.6,7.8
	c1.8,1.3,3.8,2,6,2h1.6v1.8H254v-1.8c3.7,0,6.2-0.8,7.7-2.3c1.4-1.5,2.2-4,2.2-7.5v-47l-1.4-1.8c-1.4-1.8-2.7-2.9-3.7-3.5
	S256,77,254,76.9v-1.8H277.6z"/>
<path class="st0" d="M393,73.6V97h-1.8c-2.2-6.4-5.5-11.3-9.9-14.6c-4.4-3.3-9.2-5-14.4-5c-5,0-9.1,1.4-12.4,4.2
	c-3.3,2.8-5.6,6.7-7,11.7c-1.4,5-2.1,10.1-2.1,15.4c0,6.4,0.8,12,2.3,16.8c1.5,4.8,3.9,8.3,7.3,10.6c3.4,2.3,7.3,3.4,12,3.4
	c1.6,0,3.2-0.2,4.9-0.5c1.7-0.3,3.4-0.8,5.2-1.5v-13.8c0-2.6-0.2-4.3-0.5-5.1c-0.4-0.8-1.1-1.5-2.2-2.1c-1.1-0.6-2.5-0.9-4.1-0.9
	h-1.7v-1.8h32.3v1.8c-2.5,0.2-4.2,0.5-5.1,1c-1,0.5-1.7,1.4-2.2,2.5c-0.3,0.6-0.4,2.1-0.4,4.6v13.8c-4.3,1.9-8.7,3.3-13.3,4.3
	c-4.6,1-9.4,1.4-14.3,1.4c-6.3,0-11.6-0.9-15.7-2.6c-4.2-1.7-7.9-4-11-6.8s-5.7-5.9-7.5-9.4c-2.3-4.5-3.4-9.6-3.4-15.2
	c0-10,3.5-18.5,10.6-25.4c7-6.9,15.9-10.4,26.6-10.4c3.3,0,6.3,0.3,8.9,0.8c1.4,0.3,3.8,1,7,2.2c3.2,1.2,5.1,1.8,5.7,1.8
	c0.9,0,1.8-0.3,2.6-1c0.8-0.7,1.5-1.9,2.2-3.8H393z"/>
<path class="st0" d="M429.3,78.9V106h1.3c4.2,0,7.3-1.3,9.2-4c1.9-2.7,3.1-6.6,3.6-11.7h1.9v34.8h-1.9c-0.4-3.8-1.2-6.9-2.5-9.3
	c-1.3-2.4-2.7-4-4.4-4.9c-1.7-0.8-4.1-1.3-7.3-1.3v18.8c0,3.7,0.2,5.9,0.5,6.7c0.3,0.8,0.9,1.5,1.7,2c0.9,0.5,2.2,0.8,4.1,0.8h4
	c6.2,0,11.2-1.4,14.9-4.3c3.7-2.9,6.4-7.3,8.1-13.2h1.8l-3,21.2h-57.5v-1.8h2.2c1.9,0,3.5-0.3,4.7-1c0.9-0.5,1.5-1.2,2-2.4
	c0.4-0.8,0.5-2.8,0.5-6.2V86.5c0-3-0.1-4.9-0.2-5.5c-0.3-1.1-0.9-2-1.8-2.7c-1.2-0.9-2.9-1.4-5.1-1.4h-2.2v-1.8h55.7v19.7h-1.9
	c-0.9-4.8-2.3-8.3-4-10.4s-4.1-3.6-7.3-4.6c-1.8-0.6-5.3-0.9-10.3-0.9H429.3z"/>
<path class="st0" d="M122.5,150.4h32.9c25.2,0,37.3,15.2,37.3,34.2c0,19.7-11.9,35.2-36.9,35.2h-33.3V150.4z M150.3,203h2.8
	c8.1,0,11-5.5,11-18.5c0-12.8-2.5-17.5-10.5-17.5h-3.3V203z"/>
<path class="st0" d="M224.3,208.9l-2.3,10.9h-26.7l19.4-69.4h36.9l20,69.4h-28.8l-2.3-10.9H224.3z M237.6,191.6
	c-0.9-5.5-3.9-17-5.2-24.3h-0.6c-1.4,8.2-3.8,17.7-5.1,24.3H237.6z"/>
<path class="st0" d="M349.3,185.2c0,20.1-12.9,37.3-38.6,37.3c-25.6,0-37.7-18.2-37.7-37.4c0-19.4,12.6-37.6,38.8-37.6
	C336.2,147.6,349.3,165.6,349.3,185.2z M302.6,184.8c0,11.9,1.8,20.4,8.8,20.4c6.6,0,8.5-8,8.5-19.9c0-12.6-1.4-20.5-8.7-20.5
	C304.9,164.8,302.6,172.5,302.6,184.8z"/>
</svg>
